<svg width="17" height="16" viewBox="0 0 17 16" fill="none" xmlns="http://www.w3.org/2000/svg">
<path d="M13.4001 13.8297L9.25889 9.68844C8.93022 9.95138 8.55225 10.1595 8.12498 10.3129C7.69771 10.4663 7.24304 10.543 6.761 10.543C5.56683 10.543 4.55617 10.1294 3.72901 9.30226C2.90186 8.4751 2.48828 7.46444 2.48828 6.27027C2.48828 5.0761 2.90186 4.06544 3.72901 3.23829C4.55617 2.41114 5.56683 1.99756 6.761 1.99756C7.95516 1.99756 8.96583 2.41114 9.79298 3.23829C10.6201 4.06544 11.0337 5.0761 11.0337 6.27027C11.0337 6.75232 10.957 7.20698 10.8036 7.63425C10.6503 8.06153 10.4421 8.4395 10.1792 8.76817L14.3204 12.9094L13.4001 13.8297ZM6.761 9.22831C7.58267 9.22831 8.2811 8.94072 8.85627 8.36555C9.43144 7.79037 9.71903 7.09195 9.71903 6.27027C9.71903 5.4486 9.43144 4.75017 8.85627 4.175C8.2811 3.59983 7.58267 3.31224 6.761 3.31224C5.93932 3.31224 5.24089 3.59983 4.66572 4.175C4.09055 4.75017 3.80296 5.4486 3.80296 6.27027C3.80296 7.09195 4.09055 7.79037 4.66572 8.36555C5.24089 8.94072 5.93932 9.22831 6.761 9.22831Z" fill="#B3B3B3"/>
</svg>
